<svg width="582" height="195" viewBox="0 0 582 195" fill="none" xmlns="http://www.w3.org/2000/svg">
<path d="M431.986 27.5884C434.406 27.5884 436.745 27.911 439.003 28.5562C441.261 29.1207 443.358 29.9681 445.294 31.0972C447.229 32.1456 448.964 33.3146 450.496 34.605C451.614 35.5465 452.582 36.5317 453.399 37.5591V28.9194H465.433V106.425C465.433 112.658 460.38 117.71 454.147 117.71H453.399V82.3862C452.737 83.5772 451.85 84.749 450.738 85.9009C448.561 88.1591 445.818 90.0146 442.512 91.4663C439.205 92.918 435.818 93.643 432.35 93.6431C426.301 93.6431 420.896 92.2325 416.138 89.4097C411.46 86.5062 407.75 82.5941 405.008 77.6743C402.266 72.6738 400.895 66.9873 400.895 60.6157C400.895 54.2444 402.225 48.5989 404.887 43.6792C407.629 38.6788 411.339 34.7667 416.017 31.9438C420.775 29.0403 426.099 27.5884 431.986 27.5884ZM433.101 39.5425C429.229 39.5425 425.761 40.5102 422.696 42.4458C419.712 44.3008 417.332 46.8812 415.558 50.188C413.864 53.4141 413.018 57.0844 413.018 61.1978C413.018 65.3109 413.864 69.021 415.558 72.3276C417.332 75.5538 419.712 78.0947 422.696 79.9497C425.761 81.8045 429.229 82.7319 433.101 82.7319C437.052 82.7319 440.56 81.8045 443.625 79.9497C446.69 78.0947 449.069 75.5536 450.763 72.3276C452.456 69.1016 453.304 65.3916 453.304 61.1978C453.304 57.0038 452.417 53.293 450.643 50.0669C448.949 46.7602 446.569 44.1797 443.504 42.3247C440.52 40.4699 437.052 39.5426 433.101 39.5425Z" fill="white"/>
<path d="M338.867 93.2784V29.7639H351.328V42.8298L349.15 44.2815C349.957 41.4587 351.53 38.8778 353.869 36.5388C356.208 34.1192 358.99 32.1835 362.216 30.7318C365.442 29.1994 368.749 28.4332 372.137 28.4332C376.976 28.4332 381.009 29.401 384.235 31.3367C387.461 33.1917 389.88 36.0549 391.493 39.9263C393.106 43.7976 393.913 48.6771 393.913 54.5648V93.2784H381.452V55.4117C381.452 51.7823 380.968 48.7981 380 46.4592C379.033 44.0396 377.54 42.3055 375.524 41.257C373.508 40.1279 371.007 39.644 368.023 39.8053C365.604 39.8053 363.386 40.2085 361.369 41.0151C359.353 41.741 357.579 42.7894 356.046 44.1605C354.595 45.5317 353.425 47.1447 352.538 48.9997C351.731 50.7741 351.328 52.7098 351.328 54.8068V93.2784H345.158C344.11 93.2784 343.061 93.2784 342.013 93.2784C340.964 93.2784 339.916 93.2784 338.867 93.2784Z" fill="white"/>
<path d="M316.974 93.2754V29.761H329.435V93.2754H316.974ZM323.023 15.7274C320.362 15.7274 318.305 15.0418 316.853 13.6707C315.402 12.2996 314.676 10.3639 314.676 7.86369C314.676 5.52474 315.402 3.6294 316.853 2.17764C318.386 0.725879 320.442 0 323.023 0C325.685 0 327.742 0.685553 329.193 2.05666C330.645 3.42776 331.371 5.36344 331.371 7.86369C331.371 10.2026 330.605 12.098 329.072 13.5497C327.621 15.0015 325.604 15.7274 323.023 15.7274Z" fill="white"/>
<path d="M262.427 73.3633L261.822 59.8136L292.188 29.6896H309.004L262.427 73.3633ZM251.055 93.204V3.67892H263.516V93.204H251.055ZM293.882 93.204L269.928 65.2577L278.759 57.152L309.851 93.204H293.882Z" fill="white"/>
<path d="M205.215 94.4882C199.973 94.4882 195.174 93.0364 190.819 90.1329C186.544 87.2294 183.116 83.2774 180.535 78.2769C177.955 73.2764 176.664 67.6306 176.664 61.3397C176.664 54.9681 177.955 49.3224 180.535 44.4025C183.197 39.402 186.746 35.4903 191.182 32.6675C195.698 29.8446 200.739 28.4332 206.304 28.4332C209.611 28.4332 212.635 28.9171 215.378 29.8849C218.12 30.8528 220.499 32.2239 222.515 33.9982C224.612 35.692 226.306 37.668 227.597 39.9263C228.968 42.1845 229.815 44.6041 230.137 47.185L227.355 46.2172V29.7639H239.937V93.2784H227.355V78.1559L230.258 77.309C229.774 79.4867 228.766 81.624 227.234 83.721C225.782 85.7373 223.887 87.552 221.548 89.165C219.289 90.7781 216.749 92.0686 213.926 93.0364C211.184 94.0042 208.28 94.4882 205.215 94.4882ZM208.482 82.9951C212.272 82.9951 215.62 82.0676 218.523 80.2125C221.427 78.3575 223.685 75.8169 225.298 72.5908C226.992 69.284 227.839 65.5337 227.839 61.3397C227.839 57.2264 226.992 53.5566 225.298 50.3305C223.685 47.1044 221.427 44.5638 218.523 42.7088C215.62 40.8538 212.272 39.9263 208.482 39.9263C204.772 39.9263 201.465 40.8538 198.561 42.7088C195.739 44.5638 193.48 47.1044 191.787 50.3305C190.173 53.5566 189.367 57.2264 189.367 61.3397C189.367 65.5337 190.173 69.284 191.787 72.5908C193.48 75.8169 195.739 78.3575 198.561 80.2125C201.465 82.0676 204.772 82.9951 208.482 82.9951Z" fill="white"/>
<path d="M144.672 94.486C138.139 94.486 132.332 93.1149 127.25 90.3727C122.25 87.5499 118.298 83.7188 115.394 78.8796C112.572 74.0404 111.16 68.4754 111.16 62.1844C111.16 57.1839 111.967 52.627 113.58 48.5137C115.193 44.4004 117.411 40.8516 120.234 37.8675C123.137 34.8026 126.565 32.4637 130.517 30.8506C134.55 29.1569 138.905 28.3101 143.583 28.3101C147.696 28.3101 151.527 29.1166 155.076 30.7297C158.625 32.2621 161.689 34.3994 164.27 37.1416C166.932 39.8838 168.948 43.1503 170.319 46.941C171.771 50.651 172.457 54.724 172.376 59.1599L172.255 64.483H120.355L117.572 54.5627H161.488L159.673 56.6193V53.7158C159.431 51.0543 158.544 48.675 157.012 46.578C155.479 44.481 153.543 42.8276 151.204 41.6178C148.866 40.408 146.325 39.8031 143.583 39.8031C139.227 39.8031 135.558 40.65 132.574 42.3437C129.589 43.9568 127.331 46.3764 125.799 49.6025C124.266 52.748 123.5 56.6597 123.5 61.3376C123.5 65.7735 124.428 69.6448 126.283 72.9516C128.138 76.1778 130.759 78.678 134.146 80.4524C137.534 82.2267 141.445 83.1139 145.881 83.1139C149.027 83.1139 151.93 82.5897 154.592 81.5412C157.334 80.4927 160.278 78.5974 163.423 75.8551L169.714 84.6867C167.779 86.6224 165.399 88.3161 162.577 89.7678C159.834 91.2196 156.891 92.3891 153.745 93.2762C150.68 94.0828 147.656 94.486 144.672 94.486Z" fill="white"/>
<path d="M73.1484 93.2784V29.7639H85.7303V49.7256L84.5205 44.8864C85.4077 41.8216 86.8998 39.0391 88.9968 36.5388C91.1744 34.0386 93.6344 32.0626 96.3766 30.6108C99.1994 29.159 102.103 28.4332 105.087 28.4332C106.458 28.4332 107.749 28.5541 108.958 28.7961C110.249 29.0381 111.257 29.3203 111.983 29.643L108.717 43.1927C107.749 42.7894 106.66 42.4668 105.45 42.2249C104.321 41.9023 103.192 41.7409 102.063 41.7409C99.885 41.7409 97.788 42.1845 95.7717 43.0717C93.836 43.8783 92.1019 45.0477 90.5695 46.5801C89.1178 48.0319 87.9483 49.7659 87.0611 51.7823C86.1739 53.718 85.7303 55.8553 85.7303 58.1942V93.2784H73.1484Z" fill="white"/>
<path d="M0 93.2791V8.5932H35.3261C40.7299 8.5932 45.2868 9.39974 48.9968 11.0128C52.7069 12.6259 55.4894 15.0455 57.3445 18.2716C59.2801 21.4171 60.248 25.2884 60.248 29.8857C60.248 34.4829 58.9575 38.3946 56.3766 41.6207C53.8764 44.8468 50.3679 47.0648 45.8514 48.2746V45.855C49.6421 46.6615 52.9488 48.1133 55.7717 50.2103C58.5946 52.2266 60.7722 54.7672 62.3046 57.832C63.9177 60.8968 64.7242 64.4052 64.7242 68.3572C64.7242 72.3899 64.079 75.979 62.7885 79.1245C61.5788 82.1893 59.7237 84.7702 57.2235 86.8672C54.8039 88.9641 51.86 90.5772 48.3919 91.7064C44.9239 92.7548 40.9718 93.2791 36.5359 93.2791H0ZM13.0658 80.6972H35.81C39.1168 80.6972 41.8994 80.2133 44.1576 79.2454C46.4966 78.2776 48.271 76.8662 49.4808 75.0111C50.7712 73.0755 51.4164 70.7768 51.4164 68.1153C51.4164 65.615 50.7309 63.4777 49.3598 61.7034C48.0693 59.929 46.2143 58.5982 43.7947 57.711C41.3751 56.7432 38.5119 56.2593 35.2051 56.2593H13.0658V80.6972ZM13.0658 43.6774H34.6002C37.0198 43.6774 39.1572 43.1934 41.0122 42.2256C42.9478 41.2578 44.4399 39.927 45.4884 38.2333C46.6176 36.5395 47.1821 34.6039 47.1821 32.4262C47.1821 28.7968 45.9723 26.0143 43.5527 24.0786C41.1332 22.1429 37.6651 21.1751 33.1485 21.1751H13.0658V43.6774Z" fill="white"/>
<g filter="url(#filter0_d_121_1116)">
<path d="M421.5 103C417.358 103 414 106.358 414 110.5C414 114.642 417.358 118 421.5 118L459.5 118C463.642 118 467 114.642 467 110.5C467 106.358 463.642 103 459.5 103L455.75 103L421.5 103Z" fill="url(#paint0_linear_121_1116)"/>
</g>
<path d="M559.248 194.191C553.979 194.191 549.229 193.273 544.998 191.437C540.767 189.601 537.255 186.887 534.461 183.295L542.843 176.11C545.238 178.904 547.832 180.94 550.626 182.217C553.5 183.414 556.733 184.013 560.325 184.013C561.762 184.013 563.08 183.853 564.277 183.534C565.554 183.135 566.632 182.576 567.51 181.858C568.468 181.139 569.186 180.301 569.665 179.343C570.144 178.305 570.384 177.188 570.384 175.99C570.384 173.915 569.625 172.238 568.109 170.961C567.31 170.402 566.033 169.804 564.277 169.165C562.601 168.446 560.405 167.728 557.691 167.01C553.061 165.812 549.269 164.455 546.315 162.938C543.362 161.422 541.087 159.705 539.49 157.789C538.293 156.273 537.415 154.636 536.856 152.88C536.297 151.044 536.018 149.048 536.018 146.893C536.018 144.258 536.576 141.864 537.694 139.708C538.891 137.473 540.488 135.557 542.484 133.96C544.559 132.284 546.954 131.007 549.668 130.129C552.462 129.251 555.416 128.812 558.529 128.812C561.483 128.812 564.397 129.211 567.271 130.009C570.224 130.807 572.938 131.965 575.413 133.482C577.888 134.998 579.963 136.794 581.64 138.87L574.575 146.653C573.058 145.136 571.382 143.819 569.546 142.702C567.789 141.504 565.993 140.586 564.157 139.948C562.321 139.309 560.645 138.99 559.128 138.99C557.452 138.99 555.935 139.149 554.578 139.469C553.221 139.788 552.063 140.267 551.105 140.906C550.227 141.544 549.549 142.342 549.07 143.3C548.591 144.258 548.351 145.336 548.351 146.534C548.431 147.571 548.67 148.569 549.07 149.527C549.549 150.405 550.187 151.164 550.986 151.802C551.864 152.441 553.181 153.119 554.937 153.838C556.693 154.556 558.928 155.235 561.643 155.873C565.634 156.911 568.907 158.069 571.462 159.346C574.096 160.543 576.171 161.94 577.688 163.537C579.285 165.054 580.402 166.81 581.041 168.806C581.68 170.801 581.999 173.037 581.999 175.511C581.999 179.104 580.961 182.337 578.886 185.211C576.89 188.005 574.176 190.2 570.743 191.796C567.31 193.393 563.479 194.191 559.248 194.191Z" fill="white"/>
<path d="M504.653 194.192C498.187 194.192 492.439 192.835 487.41 190.121C482.461 187.327 478.549 183.535 475.675 178.745C472.881 173.956 471.484 168.447 471.484 162.221C471.484 157.271 472.283 152.761 473.879 148.69C475.476 144.619 477.671 141.106 480.465 138.152C483.339 135.119 486.732 132.804 490.643 131.207C494.635 129.531 498.945 128.693 503.576 128.693C507.647 128.693 511.439 129.491 514.951 131.088C518.464 132.604 521.497 134.72 524.052 137.434C526.686 140.148 528.682 143.381 530.039 147.133C531.476 150.805 532.154 154.837 532.074 159.227L531.955 164.496H480.585L477.831 154.677H521.298L519.501 156.713V153.839C519.262 151.204 518.384 148.85 516.867 146.774C515.35 144.698 513.434 143.062 511.119 141.864C508.804 140.667 506.29 140.068 503.576 140.068C499.265 140.068 495.633 140.907 492.679 142.583C489.725 144.18 487.49 146.574 485.973 149.768C484.457 152.881 483.698 156.753 483.698 161.383C483.698 165.773 484.616 169.605 486.452 172.878C488.288 176.071 490.883 178.546 494.236 180.302C497.588 182.058 501.46 182.936 505.851 182.936C508.964 182.936 511.838 182.417 514.472 181.38C517.186 180.342 520.1 178.466 523.213 175.752L529.44 184.493C527.524 186.409 525.169 188.085 522.375 189.522C519.661 190.959 516.747 192.117 513.634 192.995C510.6 193.793 507.607 194.192 504.653 194.192Z" fill="white"/>
<path d="M453.484 192.996V130.131H465.818V192.996H453.484Z" fill="white"/>
<path d="M408.066 192.994V130.129H420.52V149.886L419.322 145.097C420.2 142.063 421.677 139.309 423.753 136.834C425.908 134.36 428.343 132.404 431.057 130.967C433.851 129.53 436.725 128.812 439.679 128.812C441.036 128.812 442.313 128.931 443.51 129.171C444.788 129.41 445.785 129.69 446.504 130.009L443.271 143.42C442.313 143.021 441.235 142.702 440.038 142.462C438.92 142.143 437.803 141.983 436.685 141.983C434.53 141.983 432.454 142.422 430.458 143.3C428.542 144.099 426.826 145.256 425.309 146.773C423.872 148.21 422.715 149.926 421.837 151.922C420.959 153.838 420.52 155.953 420.52 158.268V192.994H408.066Z" fill="white"/>
<path d="M362.759 194.191C357.57 194.191 352.821 192.754 348.51 189.88C344.279 187.007 340.886 183.095 338.332 178.146C335.777 173.196 334.5 167.608 334.5 161.382C334.5 155.075 335.777 149.487 338.332 144.618C340.966 139.668 344.479 135.797 348.869 133.003C353.34 130.209 358.329 128.812 363.837 128.812C367.11 128.812 370.104 129.29 372.818 130.248C375.532 131.206 377.887 132.563 379.883 134.32C381.958 135.996 383.635 137.952 384.912 140.187C386.269 142.422 387.107 144.817 387.426 147.372L384.672 146.414V130.129H397.126V192.994H384.672V178.026L387.546 177.188C387.067 179.343 386.069 181.459 384.553 183.534C383.116 185.53 381.24 187.326 378.925 188.923C376.689 190.519 374.175 191.796 371.381 192.754C368.667 193.712 365.793 194.191 362.759 194.191ZM365.992 182.816C369.744 182.816 373.057 181.898 375.931 180.062C378.805 178.226 381.04 175.711 382.637 172.518C384.313 169.245 385.151 165.533 385.151 161.382C385.151 157.31 384.313 153.678 382.637 150.485C381.04 147.292 378.805 144.777 375.931 142.941C373.057 141.105 369.744 140.187 365.992 140.187C362.32 140.187 359.047 141.105 356.174 142.941C353.38 144.777 351.144 147.292 349.468 150.485C347.871 153.678 347.073 157.31 347.073 161.382C347.073 165.533 347.871 169.245 349.468 172.518C351.144 175.711 353.38 178.226 356.174 180.062C359.047 181.898 362.32 182.816 365.992 182.816Z" fill="white"/>
<path d="M294.251 194.193C288.503 194.193 283.354 192.796 278.804 190.002C274.334 187.128 270.781 183.256 268.147 178.387C265.512 173.437 264.195 167.809 264.195 161.503C264.195 155.196 265.473 149.608 268.027 144.739C270.661 139.789 274.214 135.918 278.684 133.124C283.155 130.25 288.224 128.813 293.892 128.813C297.005 128.813 299.998 129.332 302.872 130.37C305.826 131.328 308.46 132.685 310.775 134.441C313.09 136.117 314.887 137.993 316.164 140.069C317.521 142.064 318.199 144.1 318.199 146.176L314.607 146.415V104.385H326.941V192.995H314.607V178.027H317.002C317.002 179.943 316.363 181.859 315.086 183.775C313.809 185.611 312.093 187.327 309.937 188.924C307.862 190.521 305.427 191.798 302.633 192.756C299.919 193.714 297.125 194.193 294.251 194.193ZM295.927 183.536C299.679 183.536 302.992 182.578 305.866 180.662C308.74 178.746 310.975 176.151 312.572 172.878C314.248 169.526 315.086 165.734 315.086 161.503C315.086 157.272 314.248 153.52 312.572 150.247C310.975 146.894 308.74 144.26 305.866 142.344C302.992 140.428 299.679 139.47 295.927 139.47C292.175 139.47 288.862 140.428 285.989 142.344C283.115 144.26 280.84 146.894 279.163 150.247C277.567 153.52 276.768 157.272 276.768 161.503C276.768 165.734 277.567 169.526 279.163 172.878C280.84 176.151 283.115 178.746 285.989 180.662C288.862 182.578 292.175 183.536 295.927 183.536Z" fill="white"/>
<path d="M203.091 192.992L203.098 130.127L215.431 130.128L215.43 143.061L213.274 144.497C214.073 141.703 215.63 139.149 217.945 136.834C220.26 134.44 223.015 132.524 226.208 131.087C229.401 129.571 232.674 128.813 236.027 128.813C240.817 128.814 244.808 129.772 248.001 131.689C251.194 133.525 253.589 136.359 255.185 140.191C256.781 144.023 257.579 148.853 257.578 154.68L257.574 192.998L245.24 192.997L245.244 155.517C245.245 151.925 244.766 148.971 243.808 146.656C242.851 144.261 241.374 142.545 239.378 141.507C237.383 140.389 234.908 139.909 231.955 140.069C229.56 140.069 227.364 140.467 225.369 141.266C223.373 141.984 221.616 143.021 220.1 144.378C218.662 145.735 217.505 147.332 216.626 149.168C215.828 150.924 215.429 152.84 215.428 154.915L215.424 192.994L209.318 192.993C208.28 192.993 207.242 192.993 206.204 192.993C205.166 192.992 204.129 192.992 203.091 192.992Z" fill="white"/>
<path d="M161.494 194.382C157.023 194.382 153.112 193.345 149.759 191.269C146.486 189.193 143.931 186.28 142.095 182.528C140.339 178.776 139.461 174.305 139.461 169.117V130.32H151.794V165.764C151.794 169.436 152.353 172.629 153.471 175.343C154.668 177.978 156.345 180.013 158.5 181.45C160.735 182.887 163.41 183.605 166.523 183.605C168.838 183.605 170.953 183.246 172.869 182.528C174.785 181.729 176.422 180.652 177.779 179.295C179.216 177.938 180.333 176.301 181.132 174.385C181.93 172.469 182.329 170.394 182.329 168.159V130.32H194.663V193.185H182.329V180.013L184.484 178.576C183.526 181.53 181.89 184.204 179.575 186.599C177.34 188.994 174.665 190.91 171.552 192.347C168.439 193.704 165.086 194.382 161.494 194.382Z" fill="white"/>
<path d="M102.279 194.191C96.1318 194.191 90.6237 192.794 85.7541 190C80.9644 187.126 77.1725 183.255 74.3785 178.385C71.5845 173.436 70.1875 167.808 70.1875 161.501C70.1875 155.195 71.5845 149.607 74.3785 144.737C77.1725 139.788 80.9644 135.916 85.7541 133.122C90.6237 130.248 96.1318 128.812 102.279 128.812C108.346 128.812 113.774 130.248 118.564 133.122C123.433 135.916 127.265 139.788 130.059 144.737C132.853 149.607 134.25 155.195 134.25 161.501C134.25 167.808 132.853 173.436 130.059 178.385C127.265 183.255 123.433 187.126 118.564 190C113.774 192.794 108.346 194.191 102.279 194.191ZM102.279 182.935C106.031 182.935 109.383 182.017 112.337 180.181C115.291 178.265 117.606 175.711 119.282 172.518C120.959 169.245 121.757 165.573 121.677 161.501C121.757 157.35 120.959 153.678 119.282 150.485C117.606 147.212 115.291 144.658 112.337 142.821C109.383 140.985 106.031 140.067 102.279 140.067C98.5267 140.067 95.134 141.025 92.1005 142.941C89.1468 144.777 86.8318 147.332 85.1554 150.605C83.479 153.798 82.6807 157.43 82.7605 161.501C82.6807 165.573 83.479 169.245 85.1554 172.518C86.8318 175.711 89.1468 178.265 92.1005 180.181C95.134 182.017 98.5267 182.935 102.279 182.935Z" fill="white"/>
<path d="M1.10938 192.993V109.173H36.0744C41.4229 109.173 45.9332 109.971 49.6053 111.568C53.2775 113.164 56.0315 115.559 57.8676 118.752C59.7835 121.865 60.7414 125.697 60.7414 130.248C60.7414 134.798 59.4642 138.669 56.9097 141.863C54.435 145.056 50.9624 147.251 46.492 148.448V146.054C50.244 146.852 53.5169 148.289 56.3109 150.364C59.1049 152.36 61.2603 154.875 62.7771 157.908C64.3736 160.942 65.1719 164.414 65.1719 168.326C65.1719 172.317 64.5333 175.87 63.256 178.983C62.0586 182.016 60.2226 184.571 57.7479 186.647C55.353 188.722 52.4392 190.319 49.0066 191.436C45.574 192.474 41.6624 192.993 37.2718 192.993H1.10938ZM14.0416 180.54H36.5533C39.8263 180.54 42.5804 180.061 44.8156 179.103C47.1306 178.145 48.8869 176.748 50.0843 174.912C51.3616 172.996 52.0002 170.721 52.0002 168.086C52.0002 165.612 51.3216 163.496 49.9646 161.74C48.6873 159.984 46.8512 158.667 44.4564 157.788C42.0615 156.83 39.2276 156.352 35.9546 156.352H14.0416V180.54ZM14.0416 143.898H35.3559C37.7508 143.898 39.8662 143.419 41.7023 142.461C43.6182 141.503 45.095 140.186 46.1328 138.51C47.2504 136.833 47.8092 134.917 47.8092 132.762C47.8092 129.17 46.6118 126.416 44.2169 124.5C41.822 122.584 38.3894 121.626 33.919 121.626H14.0416V143.898Z" fill="white"/>
<defs>
<filter id="filter0_d_121_1116" x="409.686" y="103" width="61.6289" height="23.6289" filterUnits="userSpaceOnUse" color-interpolation-filters="sRGB">
<feFlood flood-opacity="0" result="BackgroundImageFix"/>
<feColorMatrix in="SourceAlpha" type="matrix" values="0 0 0 0 0 0 0 0 0 0 0 0 0 0 0 0 0 0 127 0" result="hardAlpha"/>
<feOffset dy="4.31443"/>
<feGaussianBlur stdDeviation="2.15722"/>
<feComposite in2="hardAlpha" operator="out"/>
<feColorMatrix type="matrix" values="0 0 0 0 0 0 0 0 0 0 0 0 0 0 0 0 0 0 0.25 0"/>
<feBlend mode="normal" in2="BackgroundImageFix" result="effect1_dropShadow_121_1116"/>
<feBlend mode="normal" in="SourceGraphic" in2="effect1_dropShadow_121_1116" result="shape"/>
</filter>
<linearGradient id="paint0_linear_121_1116" x1="419.022" y1="110.499" x2="461.652" y2="110.163" gradientUnits="userSpaceOnUse">
<stop stop-color="#FD4731"/>
<stop offset="0.144231" stop-color="#FD42AB"/>
<stop offset="0.35" stop-color="#C52EB9"/>
<stop offset="0.55" stop-color="#8643D5"/>
<stop offset="0.759615" stop-color="#5859E0"/>
<stop offset="0.889423" stop-color="#1697F3"/>
</linearGradient>
</defs>
</svg>
