<svg width="32" height="35" viewBox="0 0 32 35" fill="none" xmlns="http://www.w3.org/2000/svg">
<path d="M6.75 27.75C4.8862 26.3536 3.37352 24.542 2.33201 22.459C1.2905 20.376 0.748836 18.0789 0.750002 15.75C0.750002 7.4655 7.4655 0.75 15.75 0.75C24.0345 0.75 30.75 7.4655 30.75 15.75C30.7512 18.0789 30.2095 20.376 29.168 22.459C28.1265 24.542 26.6138 26.3536 24.75 27.75" stroke="#BD5EE9" stroke-width="1.5" stroke-linecap="round" stroke-linejoin="round"/>
<path d="M6.75 27.75C4.8862 26.3536 3.37352 24.542 2.33201 22.459C1.2905 20.376 0.748836 18.0789 0.750002 15.75C0.750002 7.4655 7.4655 0.75 15.75 0.75C24.0345 0.75 30.75 7.4655 30.75 15.75C30.7512 18.0789 30.2095 20.376 29.168 22.459C28.1265 24.542 26.6138 26.3536 24.75 27.75" stroke="#BD5EE9" stroke-width="1.5" stroke-linecap="round" stroke-linejoin="round"/>
<path d="M9.042 21.7502C7.88369 20.4553 7.12495 18.8527 6.85738 17.1361C6.5898 15.4194 6.82484 13.6619 7.5341 12.0759C8.24337 10.4899 9.39655 9.14302 10.8544 8.19795C12.3123 7.25289 14.0126 6.75 15.75 6.75C17.4874 6.75 19.1877 7.25289 20.6456 8.19795C22.1035 9.14302 23.2566 10.4899 23.9659 12.0759C24.6752 13.6619 24.9102 15.4194 24.6426 17.1361C24.3751 18.8527 23.6163 20.4553 22.458 21.7502" stroke="#BD5EE9" stroke-width="1.5" stroke-linecap="round" stroke-linejoin="round"/>
<path d="M15.75 12.125C16.7114 12.125 17.6337 12.5067 18.3135 13.1865C18.9933 13.8663 19.375 14.7886 19.375 15.75C19.375 16.7114 18.9933 17.6337 18.3135 18.3135C17.6337 18.9933 16.7114 19.375 15.75 19.375C14.7886 19.375 13.8663 18.9933 13.1865 18.3135C12.5067 17.6337 12.125 16.7114 12.125 15.75C12.125 14.7886 12.5067 13.8663 13.1865 13.1865C13.8663 12.5067 14.7886 12.125 15.75 12.125Z" fill="#BD5EE9" stroke="#BD5EE9"/>
<path d="M15.9258 21.501C16.425 21.515 16.9413 21.7701 17.8486 22.376L17.8496 22.377C18.616 22.8869 19.4033 23.5431 19.9521 24.3086C20.4629 25.0211 20.7503 25.8026 20.6592 26.6475L20.6367 26.8174L19.874 31.3984C19.7327 32.2445 19.2962 33.013 18.6416 33.5674C17.9868 34.1218 17.1559 34.426 16.2979 34.4258H15.3818C14.5238 34.426 13.6929 34.1218 13.0381 33.5674C12.3834 33.013 11.946 32.2446 11.8047 31.3984H11.8057L11.042 26.8174C10.8893 25.9027 11.1677 25.0792 11.7012 24.333C12.2404 23.5788 13.0263 22.9266 13.8291 22.3916C14.8534 21.7085 15.4334 21.4873 15.9258 21.501Z" fill="#BD5EE9" stroke="#BD5EE9"/>
</svg>
