<svg width="32" height="32" viewBox="0 0 32 32" fill="none" xmlns="http://www.w3.org/2000/svg">
<mask id="path-1-inside-1_415_2839" fill="white">
<path d="M25.7773 6.24026L25.7951 6.2207L25.7773 6.24026Z"/>
</mask>
<path d="M23.5575 4.22223C22.443 5.4482 22.5333 7.34554 23.7593 8.46007C24.9853 9.5746 26.8826 9.48426 27.9972 8.25829L25.7773 6.24026L23.5575 4.22223ZM28.0149 8.23873C29.1295 7.01276 29.0391 5.11542 27.8131 4.00089C26.5872 2.88637 24.6898 2.97671 23.5753 4.20268L25.7951 6.2207L28.0149 8.23873ZM25.7773 6.24026L27.9972 8.25829L28.0149 8.23873L25.7951 6.2207L23.5753 4.20268L23.5575 4.22223L25.7773 6.24026Z" fill="url(#paint0_linear_415_2839)" mask="url(#path-1-inside-1_415_2839)"/>
<path d="M11.1418 18.8053C10.3978 17.5165 10.1961 15.9847 10.5813 14.5473C10.9665 13.11 11.907 11.8841 13.1957 11.1401C14.4844 10.3961 16.0163 10.1944 17.4537 10.5795C18.8911 10.9647 20.1168 11.9053 20.8609 13.1939C21.6049 14.4826 21.8065 16.0146 21.4214 17.4519C21.0363 18.8893 20.0957 20.1151 18.807 20.8592C17.5182 21.6032 15.9865 21.8049 14.5491 21.4197C13.1116 21.0345 11.8859 20.0941 11.1418 18.8053Z" stroke="white" stroke-width="3" stroke-linecap="round" stroke-linejoin="round"/>
<path d="M8.88867 1.5H23.1113C25.0709 1.50006 26.9503 2.27843 28.3359 3.66406C29.7216 5.0497 30.4999 6.92909 30.5 8.88867V23.1113C30.4999 25.0709 29.7216 26.9503 28.3359 28.3359C26.9503 29.7216 25.0709 30.4999 23.1113 30.5H8.88867C6.92909 30.4999 5.0497 29.7216 3.66406 28.3359C2.27843 26.9503 1.50006 25.0709 1.5 23.1113V8.88867C1.50006 6.92909 2.27843 5.0497 3.66406 3.66406C5.0497 2.27843 6.92909 1.50006 8.88867 1.5Z" stroke="white" stroke-width="3"/>
<circle cx="1.5" cy="1.5" r="1" transform="matrix(0.707107 0.707107 0.707107 -0.707107 22.3789 7.5)" stroke="white"/>
<defs>
<linearGradient id="paint0_linear_415_2839" x1="25.7862" y1="6.2207" x2="25.7862" y2="6.24026" gradientUnits="userSpaceOnUse">
<stop stop-color="#ED9A1E"/>
<stop offset="0.168269" stop-color="#F37C23"/>
<stop offset="0.254808" stop-color="#EC5331"/>
<stop offset="0.346154" stop-color="#E4273F"/>
<stop offset="0.485577" stop-color="#DA1C58"/>
<stop offset="0.596154" stop-color="#B01E92"/>
<stop offset="0.745192" stop-color="#7228AC"/>
<stop offset="0.894231" stop-color="#3131C7"/>
</linearGradient>
</defs>
</svg>
