<svg width="36" height="26" viewBox="0 0 36 26" fill="none" xmlns="http://www.w3.org/2000/svg">
<path fill-rule="evenodd" clip-rule="evenodd" d="M18 0C16.0058 0 13.68 0.0463664 11.4128 0.109292L11.3207 0.112604C9.01339 0.177186 7.15144 0.22852 5.68465 0.468633C4.15591 0.71868 2.8867 1.19725 1.872 2.2289C0.853954 3.26387 0.410233 4.54391 0.20093 6.07566C1.24754e-08 7.54945 0 9.41736 0 11.739V14.2627C0 16.581 1.24754e-08 18.4489 0.20093 19.9243C0.408558 21.4561 0.853954 22.7361 1.872 23.7711C2.8867 24.8044 4.15591 25.2813 5.68465 25.5314C7.15144 25.7715 9.01339 25.8228 11.3207 25.8874L11.4128 25.8907C13.6817 25.9536 16.0058 26 18 26C19.9942 26 22.32 25.9536 24.5872 25.8907L24.6793 25.8874C26.9866 25.8228 28.8486 25.7715 30.3153 25.5314C31.8441 25.2813 33.1133 24.8027 34.128 23.7711C35.146 22.7361 35.5914 21.4561 35.7991 19.9243C36 18.4505 36 16.5826 36 14.261V11.7373C36 9.41736 36 7.54945 35.7991 6.07566C35.5914 4.54391 35.146 3.26387 34.128 2.2289C33.1133 1.19559 31.8441 0.71868 30.3153 0.468633C28.8486 0.22852 26.9866 0.177186 24.6776 0.112604L24.5872 0.109292C22.392 0.0434003 20.1961 0.00696615 18 0ZM16.1113 17.3891C15.9203 17.497 15.704 17.5534 15.4841 17.5526C15.2642 17.5519 15.0484 17.494 14.8581 17.3849C14.6679 17.2757 14.51 17.1191 14.4002 16.9307C14.2904 16.7422 14.2326 16.5286 14.2326 16.3111V9.68728C14.2326 9.46979 14.2904 9.25613 14.4002 9.06768C14.51 8.87923 14.6679 8.7226 14.8581 8.61345C15.0484 8.5043 15.2642 8.44646 15.4841 8.44573C15.704 8.44499 15.9203 8.50138 16.1113 8.60926L21.9717 11.9212C22.1638 12.0298 22.3234 12.1868 22.4344 12.3761C22.5455 12.5654 22.6039 12.7803 22.6039 12.9992C22.6039 13.218 22.5455 13.433 22.4344 13.6223C22.3234 13.8116 22.1638 13.9685 21.9717 14.0772L16.1113 17.3891Z" fill="#FD4731"/>
</svg>
