<svg width="30" height="30" viewBox="0 0 30 30" fill="none" xmlns="http://www.w3.org/2000/svg">
<circle cx="15" cy="15" r="15" fill="url(#paint0_linear_191_997)"/>
<path d="M12.4908 11.0445C12.4414 11.0158 12.3852 11.0005 12.3278 11C12.2705 10.9995 12.214 11.0139 12.1642 11.0417C12.1143 11.0695 12.0729 11.1096 12.044 11.1582C12.0152 11.2067 12 11.2618 12 11.318V18.682C12 18.7382 12.0152 18.7933 12.044 18.8418C12.0729 18.8904 12.1143 18.9305 12.1642 18.9583C12.214 18.9861 12.2705 19.0005 12.3278 19C12.3852 18.9995 12.4414 18.9842 12.4908 18.9555L18.8408 15.2735C18.8893 15.2453 18.9295 15.2053 18.9574 15.1574C18.9853 15.1094 19 15.0552 19 15C19 14.9448 18.9853 14.8906 18.9574 14.8426C18.9295 14.7947 18.8893 14.7547 18.8408 14.7265L12.4908 11.0445Z" fill="white"/>
<defs>
<linearGradient id="paint0_linear_191_997" x1="-10.5" y1="22.5" x2="78.0768" y2="7.8784" gradientUnits="userSpaceOnUse">
<stop stop-color="#FD4731"/>
<stop offset="0.144231" stop-color="#FD42AB"/>
<stop offset="0.35" stop-color="#C52EB9"/>
<stop offset="0.55" stop-color="#8643D5"/>
<stop offset="0.759615" stop-color="#5859E0"/>
<stop offset="0.889423" stop-color="#1697F3"/>
</linearGradient>
</defs>
</svg>
